# xmcd
#
# Track frame offsets:
#	150
#	13585
#	27415
#	41630
#	54102
#	66877
#	81995
#	96625
#	106862
#	124090
#
# Disc length: 1752 seconds
#
# Revision: 0
# Processed by: cddbd v1.5.1PL0 Copyright (c) Steve Scherf et al.
# Submitted via: EasyCDDAExtractor 4.6.0.1
#
DISCID=8006d60a
DTITLE=Willie Nelson and Waylon Jennings - Original Outlaws
DYEAR=1998
DGENRE=country
TTITLE0=Good hearted woman
TTITLE1=The year that Clayton Delaney died
TTITLE2=The Teddy Bear song
TTITLE3=Heroes
TTITLE4=Just to satisfy you
TTITLE5=(sitting on) The dock of the bay
TTITLE6=Write your own song
TTITLE7=Last cow-boy song
TTITLE8=Mr shuck and jive
TTITLE9=Heaven or hell
EXTD=
EXTT0=
EXTT1=
EXTT2=
EXTT3=
EXTT4=
EXTT5=
EXTT6=
EXTT7=
EXTT8=
EXTT9=
PLAYORDER=
